<svg width="437" height="228" xmlns="http://www.w3.org/2000/svg" xmlns:xlink="http://www.w3.org/1999/xlink" xml:space="preserve" overflow="hidden"><defs><clipPath id="clip0"><rect x="0" y="0" width="437" height="228"/></clipPath><linearGradient x1="668.207" y1="354.234" x2="708.547" y2="319.436" gradientUnits="userSpaceOnUse" spreadMethod="reflect" id="fill1"><stop offset="0" stop-color="#472784"/><stop offset="0.29" stop-color="#472784"/><stop offset="0.42" stop-color="#E50064"/><stop offset="0.55" stop-color="#482885"/><stop offset="0.67" stop-color="#31B7BC"/><stop offset="0.74" stop-color="#472784"/><stop offset="1" stop-color="#472784"/></linearGradient></defs><g clip-path="url(#clip0)"><path d="M398.768 229.622 441.634 229.622 441.634 272.488 398.768 272.488Z" fill="#F2F2F2" fill-rule="evenodd" transform="matrix(1 0 0 1.00116 -300.524 -143.361)"/><path d="M485.195 186.061 528.061 186.061 528.061 228.927 485.195 228.927Z" fill="#F2F2F2" fill-rule="evenodd" transform="matrix(1 0 0 1.00116 -300.524 -143.361)"/><path d="M441.634 186.061 484.5 186.061 484.5 228.927 441.634 228.927Z" fill="#F2F2F2" fill-rule="evenodd" transform="matrix(1 0 0 1.00116 -300.524 -143.361)"/><path d="M571.622 143.195 614.488 143.195 614.488 186.061 571.622 186.061Z" fill="#F2F2F2" fill-rule="evenodd" transform="matrix(1 0 0 1.00116 -300.524 -143.361)"/><path d="M571.622 186.756 614.488 186.756 614.488 229.622 571.622 229.622Z" fill="#F2F2F2" fill-rule="evenodd" transform="matrix(1 0 0 1.00116 -300.524 -143.361)"/><path d="M571.622 230.317 614.488 230.317 614.488 273.183 571.622 273.183Z" fill="#F2F2F2" fill-rule="evenodd" transform="matrix(1 0 0 1.00116 -300.524 -143.361)"/><path d="M528.061 143.195 570.927 143.195 570.927 186.061 528.061 186.061Z" fill="#F2F2F2" fill-rule="evenodd" transform="matrix(1 0 0 1.00116 -300.524 -143.361)"/><path d="M485.195 229.622 528.061 229.622 528.061 272.488 485.195 272.488Z" fill="#F2F2F2" fill-rule="evenodd" transform="matrix(1 0 0 1.00116 -300.524 -143.361)"/><path d="M349.762 338.881 336.944 308.171 318.598 308.171 318.598 364.244 331.585 364.244 331.585 324.237 343.564 353.532 355.879 353.532 367.947 324.237 367.947 364.244 380.927 364.244 380.927 308.171 362.583 308.171 349.762 338.881Z" fill="#F2F2F2" fill-rule="evenodd" transform="matrix(1 0 0 1.00116 -300.524 -143.361)"/><path d="M423.969 326.061C422.349 323.89 420.354 322.215 417.981 321.049 415.609 319.877 412.965 319.293 410.057 319.293 406.985 319.293 404.165 319.84 401.595 320.924 399.023 322.011 396.827 323.561 395.015 325.565 393.198 327.576 391.787 329.986 390.779 332.799 389.771 335.61 389.268 338.721 389.268 342.116 389.268 345.51 389.787 348.527 390.816 351.317 391.854 354.1 393.284 356.496 395.133 358.507 396.973 360.518 399.169 362.091 401.711 363.227 404.253 364.371 407.036 364.939 410.05 364.939 413.067 364.939 415.82 364.341 418.304 363.139 420.785 361.945 422.669 360.314 423.962 358.252L423.962 364.188 436.537 364.188 436.537 320.05 423.962 320.05 423.962 326.068ZM423.174 346.625C422.641 347.966 421.888 349.116 420.91 350.094 419.93 351.069 418.785 351.834 417.476 352.394 416.163 352.955 414.696 353.233 413.081 353.233 411.468 353.233 410.066 352.955 408.722 352.394 407.379 351.841 406.232 351.069 405.291 350.094 404.341 349.116 403.581 347.943 403.027 346.581 402.464 345.218 402.186 343.754 402.186 342.197 402.186 340.638 402.45 339.092 402.983 337.723 403.516 336.36 404.267 335.188 405.247 334.212 406.225 333.237 407.385 332.47 408.722 331.909 410.057 331.348 411.512 331.073 413.081 331.073 416.315 331.073 418.945 332.106 420.961 334.161 422.977 336.224 423.976 338.895 423.976 342.188 423.976 343.805 423.714 345.286 423.181 346.618Z" fill="#F2F2F2" fill-rule="evenodd" transform="matrix(1 0 0 1.00116 -300.524 -143.361)"/><path d="M458.403 327.88 458.403 319.902 445.805 319.902 445.805 364.244 458.403 364.244 458.403 343.921C458.403 341.798 458.813 339.947 459.626 338.381 460.437 336.814 461.559 335.512 462.986 334.474 464.413 333.434 466.105 332.665 468.065 332.162 470.028 331.657 472.18 331.436 474.537 331.487L474.537 319.061C471.286 319.061 468.248 319.793 465.424 321.241 462.597 322.699 460.254 324.909 458.41 327.88Z" fill="#F2F2F2" fill-rule="evenodd" transform="matrix(1 0 0 1.00116 -300.524 -143.361)"/><path d="M513.169 326.061C511.547 323.89 509.555 322.215 507.175 321.049 504.8 319.877 502.158 319.293 499.257 319.293 496.185 319.293 493.365 319.84 490.795 320.924 488.224 322.011 486.034 323.561 484.215 325.565 482.396 327.576 480.987 329.986 479.986 332.799 478.978 335.61 478.476 338.721 478.476 342.116 478.476 345.51 478.995 348.527 480.023 351.317 481.061 354.1 482.498 356.496 484.34 358.507 486.187 360.518 488.379 362.091 490.918 363.227 493.46 364.371 496.243 364.939 499.257 364.939 502.274 364.939 505.027 364.341 507.511 363.139 509.992 361.945 511.876 360.314 513.169 358.252L513.169 364.188 525.744 364.188 525.744 320.05 513.169 320.05 513.169 326.068ZM512.374 346.625C511.839 347.966 511.088 349.116 510.111 350.094 509.13 351.069 507.984 351.834 506.677 352.394 505.363 352.955 503.896 353.233 502.274 353.233 500.652 353.233 499.257 352.955 497.914 352.394 496.579 351.841 495.425 351.069 494.482 350.094 493.532 349.116 492.781 347.943 492.218 346.581 491.657 345.218 491.379 343.754 491.379 342.197 491.379 340.638 491.641 339.092 492.174 337.723 492.707 336.36 493.46 335.188 494.438 334.212 495.418 333.237 496.579 332.47 497.914 331.909 499.257 331.348 500.703 331.073 502.274 331.073 505.516 331.073 508.139 332.106 510.152 334.161 512.168 336.224 513.169 338.895 513.169 342.188 513.169 343.805 512.907 345.286 512.374 346.618Z" fill="#F2F2F2" fill-rule="evenodd" transform="matrix(1 0 0 1.00116 -300.524 -143.361)"/><path d="M572.776 323.992C571.406 322.483 569.752 321.315 567.82 320.477 565.887 319.638 563.751 319.223 561.394 319.223 558.876 319.223 556.394 319.814 553.957 320.98 551.519 322.154 549.404 323.802 547.61 325.917L547.61 304 535.012 304 535.012 364.237 547.61 364.237 547.61 341.147C547.668 339.637 547.946 338.244 548.451 336.963 548.956 335.679 549.631 334.562 550.472 333.615 551.315 332.667 552.295 331.93 553.414 331.399 554.536 330.873 555.736 330.605 557.024 330.605 559.323 330.605 561.151 331.355 562.527 332.864 563.904 334.365 564.585 336.349 564.585 338.807L564.585 364.244 577.183 364.244 577.183 336.131C577.183 333.682 576.796 331.42 576.004 329.358 575.22 327.294 574.145 325.507 572.769 324.006Z" fill="#F2F2F2" fill-rule="evenodd" transform="matrix(1 0 0 1.00116 -300.524 -143.361)"/><path d="M629.076 338.353C628.849 335.501 628.126 332.885 626.889 330.51 625.661 328.132 624.053 326.107 622.062 324.427 620.074 322.752 617.755 321.436 615.095 320.486 612.44 319.536 609.573 319.061 606.494 319.061 603.136 319.061 600.059 319.631 597.265 320.778 594.464 321.927 592.065 323.505 590.047 325.516 588.029 327.525 586.465 329.954 585.346 332.776 584.227 335.596 583.671 338.689 583.671 342.044 583.671 345.399 584.241 348.492 585.39 351.312 586.537 354.135 588.131 356.554 590.172 358.572 592.211 360.583 594.677 362.147 597.557 363.266 600.439 364.383 603.584 364.939 606.999 364.939 612.426 364.939 617.018 363.623 620.76 361 624.505 358.375 627.028 354.565 628.316 349.588L615.811 349.588C615.248 351.095 614.231 352.272 612.745 353.11 611.262 353.951 609.513 354.369 607.504 354.369 604.652 354.369 602.281 353.571 600.409 351.977 598.537 350.385 597.346 348.191 596.841 345.392L629.236 345.392C629.296 344.669 629.317 343.916 629.317 343.126 629.317 342.739 629.303 342.16 629.28 341.407 629.252 340.656 629.178 339.632 629.069 338.346ZM597.024 337.936C597.638 335.422 598.815 333.448 600.548 332.023 602.281 330.595 604.381 329.886 606.846 329.886 609.529 329.886 611.751 330.595 613.515 332.023 615.276 333.448 616.3 335.422 616.578 337.936L597.024 337.936Z" fill="#F2F2F2" fill-rule="evenodd" transform="matrix(1 0 0 1.00116 -300.524 -143.361)"/><path d="M636.5 304 649.012 304 649.012 364.244 636.5 364.244Z" fill="#F2F2F2" fill-rule="evenodd" transform="matrix(1 0 0 1.00116 -300.524 -143.361)"/><text fill="#FFFFFF" font-family="Arial,Arial_MSFontService,sans-serif" font-weight="700" font-size="183" direction="rtl" writing-mode="rl-tb" transform="matrix(0.231707 0 0 0.231975 373.035 268)" x="541.438">لل</text><text fill="#FFFFFF" font-family="Arial,Arial_MSFontService,sans-serif" font-weight="700" font-size="183" direction="rtl" writing-mode="rl-tb" transform="matrix(0.231707 0 0 0.231975 365.29 268)" x="156.57">ـ</text><text fill="#FFFFFF" font-family="Arial,Arial_MSFontService,sans-serif" font-weight="700" font-size="183" direction="rtl" writing-mode="rl-tb" transform="matrix(0.231707 0 0 0.231975 325.599 268)" x="698.007">ذك</text><text fill="#FFFFFF" font-family="Arial,Arial_MSFontService,sans-serif" font-weight="700" font-size="183" direction="rtl" writing-mode="rl-tb" transform="matrix(0.231707 0 0 0.231975 303.162 268)" x="156.57">ـ</text><text fill="#FFFFFF" font-family="Arial,Arial_MSFontService,sans-serif" font-weight="700" font-size="183" direction="rtl" writing-mode="rl-tb" transform="matrix(0.231707 0 0 0.231975 152.435 268)" x="2766.19">اء الاصطن</text><text fill="#FFFFFF" font-family="Arial,Arial_MSFontService,sans-serif" font-weight="700" font-size="183" direction="rtl" writing-mode="rl-tb" transform="matrix(0.231707 0 0 0.231975 117.048 268)" x="156.57">ـ</text><text fill="#FFFFFF" font-family="Arial,Arial_MSFontService,sans-serif" font-weight="700" font-size="183" direction="rtl" writing-mode="rl-tb" transform="matrix(0.231707 0 0 0.231975 82.7022 268)" x="598.512">اع</text><text fill="#FFFFFF" font-family="Arial,Arial_MSFontService,sans-serif" font-weight="700" font-size="183" direction="rtl" writing-mode="rl-tb" transform="matrix(0.231707 0 0 0.231975 67.5322 268)" x="156.57">ـ</text><text fill="#FFFFFF" font-family="Arial,Arial_MSFontService,sans-serif" font-weight="700" font-size="183" direction="rtl" writing-mode="rl-tb" transform="matrix(0.231707 0 0 0.231975 37.9891 268)" x="509.044">ي</text><text fill="#FFFFFF" font-family="Arial,Arial_MSFontService,sans-serif" font-weight="700" font-size="183" transform="matrix(0.231707 0 0 0.231975 402.109 268)"> </text><path d="M663.262 313.949C663.262 312.742 664.242 311.762 665.45 311.762L712.051 311.762C713.258 311.762 714.238 312.742 714.238 313.949L714.238 360.548C714.238 361.758 713.258 362.738 712.051 362.738L665.45 362.738C664.242 362.738 663.262 361.758 663.262 360.548Z" stroke="#042433" stroke-width="1.59299" stroke-miterlimit="8" fill="#FFFFFF" fill-rule="evenodd" transform="matrix(1 0 0 1.00116 -300.524 -143.361)"/><path d="M683.015 331.765C682.561 333.538 682.005 335.387 681.347 337.317L680.223 340.554 685.74 340.554 684.582 337.25C683.9 335.253 683.379 333.424 683.015 331.765ZM697.365 325.192 703.734 325.192 703.734 349.579 697.365 349.579ZM679.781 325.192 686.252 325.192 695.379 349.579 688.771 349.579 687.205 345.119 678.759 345.119 677.19 349.579 670.651 349.579Z" fill="url(#fill1)" fill-rule="evenodd" transform="matrix(1 0 0 1.00116 -300.524 -143.361)"/></g></svg>